<?xml version="1.0" standalone="no"?>
<!DOCTYPE svg PUBLIC "-//W3C//DTD SVG 20010904//EN"
 "http://www.w3.org/TR/2001/REC-SVG-20010904/DTD/svg10.dtd">
<svg version="1.0" xmlns="http://www.w3.org/2000/svg"
 width="100.000000pt" height="100.000000pt" viewBox="0 0 100.000000 100.000000"
 preserveAspectRatio="xMidYMid meet">
<metadata>
Created by potrace 1.11, written by Peter Selinger 2001-2013
</metadata>
<g transform="translate(0.000000,100.000000) scale(0.100000,-0.100000)"
fill="#000000" stroke="none">
<path d="M558 830 c-26 -26 -64 -55 -84 -65 -49 -23 -124 -16 -193 18 -45 23
-52 24 -46 10 4 -10 10 -29 13 -42 5 -23 3 -24 -29 -17 -31 6 -32 5 -14 -8 25
-19 12 -45 -33 -65 -37 -17 -40 -26 -13 -41 31 -16 61 -74 61 -116 0 -22 -9
-58 -20 -82 l-20 -43 24 -23 c28 -25 40 -75 39 -163 l0 -63 293 0 294 0 0 295
c0 288 0 295 -20 295 -11 0 -20 7 -20 15 0 12 -5 13 -17 7 -31 -15 -93 -14
-117 2 -23 15 -44 72 -41 114 1 12 -1 22 -4 21 -3 0 -27 -22 -53 -49z"/>
</g>
</svg>
